<svg width="26" height="26" viewBox="0 0 26 26" fill="none" xmlns="http://www.w3.org/2000/svg">
<mask id="mask0" style="mask-type:alpha" maskUnits="userSpaceOnUse" x="0" y="0" width="26" height="26">
<circle cx="13" cy="13" r="13" fill="#C4C4C4"/>
</mask>
<g mask="url(#mask0)">
<path d="M23.7733 25.4418L23.2339 23.2843C22.978 22.2377 22.2022 21.396 21.1798 21.0559L17.2245 19.738C16.2599 19.3362 15.8186 17.7828 15.7232 17.1931C16.4582 16.582 16.9311 15.7124 17.0447 14.7633C17.0285 14.6012 17.0667 14.4383 17.1534 14.3003C17.2936 14.2652 17.4083 14.1649 17.4618 14.0306C17.7206 13.404 17.883 12.7417 17.9436 12.0665C17.9437 12.0298 17.9392 11.9932 17.9301 11.9577C17.8657 11.6953 17.7115 11.4638 17.4941 11.3033V8.92019C17.4941 7.472 17.0518 6.87782 16.5862 6.53351C16.4973 5.83597 15.7503 4.42554 12.9995 4.42554C10.559 4.5238 8.60308 6.47975 8.50481 8.92023V11.3033C8.28747 11.4638 8.1332 11.6954 8.06881 11.9578C8.05971 11.9933 8.0552 12.0299 8.05533 12.0665C8.11584 12.7421 8.27828 13.4046 8.53717 14.0316C8.57611 14.1587 8.67821 14.2564 8.80686 14.2896C8.85721 14.3148 8.9516 14.4452 8.9516 14.7634C9.06583 15.7152 9.54148 16.5867 10.2802 17.1977C10.1859 17.7865 9.74716 19.339 8.80959 19.7309L4.8192 21.0559C3.79766 21.396 3.02233 22.2369 2.76605 23.2826L2.22669 25.44C2.16563 25.6806 2.31117 25.9252 2.55178 25.9863C2.58772 25.9954 2.62468 26 2.66176 26.0001H23.3373C23.5855 26 23.7867 25.7987 23.7867 25.5505C23.7866 25.5138 23.7821 25.4773 23.7733 25.4418Z" fill="#49608D"/>
</g>
</svg>
